Coordinates
version=1
nRows=16
nColumns=63
inDegrees=yes

Units are S.I. units (second, meters, Newtons, ...)
If the header above contains a line with 'inDegrees', this indicates whether rotational values are in degrees (yes) or radians (no).

endheader
time	pelvis_tilt	pelvis_list	pelvis_rotation	pelvis_tx	pelvis_ty	pelvis_tz	hip_flexion_r	hip_adduction_r	hip_rotation_r	knee_angle_r	knee_angle_r_beta	ankle_angle_r	subtalar_angle_r	mtp_angle_r	hip_flexion_l	hip_adduction_l	hip_rotation_l	knee_angle_l	knee_angle_l_beta	ankle_angle_l	subtalar_angle_l	mtp_angle_l	L5_S1_Flex_Ext	L5_S1_Lat_Bending	L5_S1_axial_rotation	L4_L5_Flex_Ext	L4_L5_Lat_Bending	L4_L5_axial_rotation	L3_L4_Flex_Ext	L3_L4_Lat_Bending	L3_L4_axial_rotation	L2_L3_Flex_Ext	L2_L3_Lat_Bending	L2_L3_axial_rotation	L1_L2_Flex_Ext	L1_L2_Lat_Bending	L1_L2_axial_rotation	L1_T12_Flex_Ext	L1_T12_Lat_Bending	L1_T12_axial_rotation	Abs_r3	Abs_r2	Abs_r1	Abs_t1	Abs_t2	neck_flexion	neck_bending	neck_rotation	arm_flex_r	arm_add_r	arm_rot_r	elbow_flex_r	pro_sup_r	wrist_flex_r	wrist_dev_r	arm_flex_l	arm_add_l	arm_rot_l	elbow_flex_l	pro_sup_l	wrist_flex_l	wrist_dev_l
0.000000	3.642527	-4.161047	91.465429	0.114451	1.036833	0.312187	-5.806339	-0.326695	-18.955912	3.899320	0.068056	31.838805	15.527147	0.000000	-6.055222	-1.014010	26.986006	0.397538	0.006938	27.555034	-15.810617	0.000000	0.153436	0.002380	-2.095613	0.284946	0.003165	-2.226589	0.252080	0.005787	-2.226589	0.175362	0.005787	-1.833661	0.142481	0.004853	-1.702686	0.087673	0.003687	-1.571710	1.095977	0.026923	-11.655171	0.000000	0.000000	1.390711	2.667993	22.608838	-24.366812	-98.242517	-76.225002	3.620858	59.283741	-18.604272	20.810549	60.033671	-123.254849	65.754013	23.956063	75.322679	-11.763391	-2.563382
0.016949	3.772159	-4.243160	91.417727	0.114877	1.036486	0.311864	-5.941650	-0.092511	-18.600167	3.400183	0.059344	31.631764	15.413856	0.000000	-6.077725	-1.267511	27.216490	0.347152	0.006059	27.297425	-16.245551	0.000000	0.139070	0.021768	-1.981931	0.258268	0.028952	-2.105801	0.228479	0.052928	-2.105801	0.158943	0.052928	-1.734189	0.129141	0.044390	-1.610319	0.079465	0.033719	-1.486448	0.993366	0.246248	-11.022904	0.000000	0.000000	2.255203	2.200395	21.802394	-24.473176	-98.749229	-83.667222	3.998477	59.265580	-18.039256	20.036041	59.410449	-123.172391	59.058940	25.085490	81.087136	-13.643397	-0.047888
0.033898	3.877834	-4.356555	91.392314	0.115147	1.036112	0.311604	-6.021059	0.100862	-18.259981	2.955393	0.051581	31.447778	15.262173	0.000000	-6.041427	-1.472599	27.417866	0.305926	0.005339	27.129164	-16.581497	0.000000	0.130208	0.039632	-1.884592	0.241809	0.052711	-2.002378	0.213919	0.096362	-2.002378	0.148815	0.096362	-1.649018	0.120911	0.080818	-1.531231	0.074401	0.061390	-1.413444	0.930062	0.448328	-10.481533	0.000000	0.000000	3.086703	1.779116	21.215456	-23.695388	-99.130773	-88.825440	4.285520	59.470779	-17.675672	19.484745	58.593579	-122.950830	54.550700	25.597931	84.710439	-15.074448	1.643851
0.050847	3.961352	-4.497478	91.388509	0.115275	1.035715	0.311405	-6.049865	0.256591	-17.938116	2.561771	0.044711	31.286058	15.078713	0.000000	-5.952877	-1.633525	27.594736	0.273067	0.004766	27.039405	-16.828537	0.000000	0.126257	0.055919	-1.802292	0.234473	0.074372	-1.914935	0.207428	0.135961	-1.914935	0.144300	0.135961	-1.577005	0.117243	0.114030	-1.464362	0.072144	0.086618	-1.351719	0.901845	0.632565	-10.023807	0.000000	0.000000	3.886594	1.403796	20.817665	-22.104821	-99.401591	-91.878480	4.490383	59.874154	-17.477465	19.138703	57.629680	-122.609248	51.970964	25.578023	86.450102	-16.092773	2.612944
0.067797	4.024513	-4.662172	91.405629	0.115277	1.035298	0.311264	-6.033367	0.377842	-17.637332	2.216136	0.038679	31.145816	14.870093	0.000000	-5.818625	-1.754541	27.751703	0.247783	0.004325	27.017300	-16.996750	0.000000	0.126628	0.070575	-1.733729	0.235161	0.093865	-1.842087	0.208037	0.171596	-1.842087	0.144723	0.171596	-1.517013	0.117587	0.143917	-1.408655	0.072355	0.109321	-1.300297	0.904491	0.798359	-9.642479	0.000000	0.000000	4.656261	1.074074	20.578661	-19.772847	-99.576129	-93.005164	4.621465	60.450521	-17.408583	18.979955	56.565373	-122.166727	51.061402	25.110403	86.563639	-16.734602	2.960503
0.084746	4.069117	-4.846881	91.442991	0.115169	1.034865	0.311177	-5.976865	0.467782	-17.360391	1.915311	0.033428	31.026262	14.642927	0.000000	-5.645221	-1.839896	27.893370	0.229282	0.004002	27.052000	-17.096218	0.000000	0.130728	0.083548	-1.677598	0.242776	0.111119	-1.782448	0.214774	0.203138	-1.782448	0.149410	0.203138	-1.467899	0.121394	0.170371	-1.363049	0.074698	0.129416	-1.258199	0.933780	0.945110	-9.330299	0.000000	0.000000	5.397089	0.789591	20.468085	-16.770840	-99.668827	-92.384318	4.687162	61.174694	-17.432972	18.990543	55.447279	-121.642347	51.563683	24.279708	85.308565	-17.036163	2.787640
0.101695	4.096964	-5.047849	91.499914	0.114965	1.034419	0.311143	-5.885656	0.529576	-17.110054	1.656116	0.028905	30.926606	14.403833	0.000000	-5.439214	-1.893844	28.024341	0.216770	0.003783	27.132659	-17.137020	0.000000	0.137968	0.094784	-1.632598	0.256220	0.126063	-1.734635	0.226667	0.230459	-1.734635	0.157683	0.230459	-1.428523	0.128117	0.193284	-1.326486	0.078835	0.146821	-1.224448	0.985489	1.072220	-9.080018	0.000000	0.000000	6.110460	0.549985	20.455577	-13.170171	-99.694131	-90.194765	4.695872	62.021490	-17.514579	19.152508	54.322017	-121.055192	53.219478	23.170573	82.942393	-17.033687	2.195465
0.118644	4.109854	-5.261321	91.575714	0.114682	1.033964	0.311157	-5.765040	0.566393	-16.889082	1.435372	0.025052	30.846060	14.159425	0.000000	-5.207153	-1.920633	28.149217	0.209456	0.003656	27.248429	-17.129238	0.000000	0.147755	0.104232	-1.597423	0.274395	0.138628	-1.697262	0.242746	0.253429	-1.697262	0.168869	0.253429	-1.397745	0.137205	0.212549	-1.297906	0.084427	0.161455	-1.198067	1.055397	1.179089	-8.884387	0.000000	0.000000	6.797760	0.354898	20.510778	-9.042214	-99.666483	-86.615329	4.655992	62.965725	-17.617350	19.447891	53.236209	-120.424343	55.770457	21.867636	79.722638	-16.763401	1.285090
0.135593	4.109587	-5.483540	91.669710	0.114335	1.033502	0.311216	-5.620316	0.581399	-16.700236	1.249900	0.021815	30.783835	13.916319	0.000000	-4.955588	-1.924515	28.272602	0.206547	0.003605	27.388462	-17.082952	0.000000	0.159498	0.111837	-1.570771	0.296204	0.148743	-1.668944	0.262040	0.271920	-1.668944	0.182291	0.271920	-1.374425	0.148110	0.228057	-1.276251	0.091137	0.173235	-1.178078	1.139280	1.265118	-8.736157	0.000000	0.000000	7.460372	0.203967	20.603328	-4.458341	-99.600326	-81.824834	4.575919	63.982214	-17.705232	19.858734	52.236475	-119.768881	58.958291	20.455534	75.906813	-16.261537	0.157625
0.152542	4.097961	-5.710750	91.781218	0.113940	1.033039	0.311318	-5.456783	0.577760	-16.546276	1.096521	0.019138	30.739141	13.681132	0.000000	-4.691067	-1.909741	28.399098	0.207251	0.003617	27.541911	-17.008242	0.000000	0.172608	0.117546	-1.551338	0.320549	0.156337	-1.648297	0.283577	0.285802	-1.648297	0.197273	0.285802	-1.357421	0.160283	0.239701	-1.260462	0.098628	0.182079	-1.163504	1.232918	1.329708	-8.628078	0.000000	0.000000	8.099681	0.096834	20.702868	0.510076	-99.510104	-76.002103	4.464052	65.045773	-17.742172	20.367077	51.369435	-119.107888	62.524648	19.018901	71.752433	-15.564323	-1.085819
0.169492	4.076778	-5.939196	91.909557	0.113511	1.032576	0.311460	-5.279739	0.558642	-16.429965	0.972056	0.016966	30.711188	13.460478	0.000000	-4.420142	-1.880562	28.533309	0.210775	0.003679	27.697928	-16.915190	0.000000	0.186491	0.121308	-1.537822	0.346333	0.161340	-1.633935	0.306386	0.294948	-1.633935	0.213141	0.294948	-1.345594	0.173176	0.247371	-1.249480	0.106561	0.187906	-1.153366	1.332088	1.372260	-8.552902	0.000000	0.000000	8.717071	0.033137	20.779039	5.791663	-99.410260	-69.325960	4.328786	66.131218	-17.692116	20.954962	50.681709	-118.460446	66.211201	17.642377	67.517011	-14.707988	-2.344130
0.186441	4.051139	-6.174921	92.080053	0.113061	1.032126	0.311700	-5.073408	0.532675	-16.339862	0.887621	0.015492	30.706204	13.211597	0.000000	-4.131128	-1.849099	28.661984	0.227686	0.003974	27.834188	-16.751846	0.000000	0.198868	0.123047	-1.523489	0.369317	0.163652	-1.618707	0.326720	0.299175	-1.618707	0.227286	0.299175	-1.333053	0.184668	0.250917	-1.237835	0.113633	0.190599	-1.142617	1.420491	1.391928	-8.473187	0.000000	0.000000	9.384970	0.010771	20.664788	11.687455	-99.336504	-61.965875	4.289860	67.767938	-17.342646	21.765581	50.822257	-117.907566	68.094772	16.969510	64.756915	-13.778369	-3.112732
0.203390	4.024743	-6.390522	92.267969	0.112602	1.031674	0.311960	-4.892821	0.503475	-16.366658	0.802722	0.014010	30.709650	13.097360	0.000000	-3.875749	-1.820353	28.902918	0.228058	0.003980	27.904737	-16.723977	0.000000	0.209989	0.123365	-1.510394	0.389970	0.164075	-1.604794	0.344991	0.299949	-1.604794	0.239996	0.299949	-1.321595	0.194996	0.251566	-1.227195	0.119988	0.191092	-1.132795	1.499929	1.395528	-8.400358	0.000000	0.000000	10.011769	0.027437	20.434897	17.899139	-99.338473	-54.018778	4.158990	69.148893	-16.771694	22.626334	51.201279	-117.379060	69.592467	16.508839	62.630407	-12.751029	-3.599663
0.220339	3.984813	-6.585712	92.475974	0.112166	1.031242	0.312251	-4.725068	0.459191	-16.476156	0.743452	0.012976	30.733034	13.035066	0.000000	-3.646075	-1.780738	29.167827	0.228591	0.003990	27.934912	-16.712595	0.000000	0.220429	0.119387	-1.508133	0.409359	0.158785	-1.602391	0.362143	0.290278	-1.602391	0.251928	0.290278	-1.319616	0.204691	0.243455	-1.225358	0.125953	0.184931	-1.131099	1.574503	1.350534	-8.387781	0.000000	0.000000	10.566668	0.111324	20.094633	23.696940	-99.397800	-46.189433	3.980708	69.619866	-16.079420	23.326300	51.769005	-116.969981	70.772092	16.306745	61.070529	-11.696261	-3.711958
0.237288	3.945729	-6.758915	92.671599	0.111775	1.030815	0.312552	-4.573937	0.413614	-16.570046	0.697461	0.012173	30.765365	12.968350	0.000000	-3.448933	-1.744646	29.386845	0.229132	0.003999	27.962896	-16.651086	0.000000	0.228846	0.114313	-1.508682	0.424990	0.152036	-1.602975	0.375971	0.277940	-1.602975	0.261548	0.277940	-1.320097	0.212507	0.233107	-1.225804	0.130763	0.177071	-1.131512	1.634625	1.293131	-8.390839	0.000000	0.000000	11.092144	0.222178	19.686567	29.042484	-99.486836	-38.556775	3.758568	69.605933	-15.172369	23.938435	52.384486	-116.666754	71.883912	16.292308	59.813008	-10.767847	-3.539808
0.254237	3.907953	-6.922742	92.873095	0.111434	1.030387	0.312847	-4.428776	0.370367	-16.707057	0.662692	0.011566	30.812212	12.949916	0.000000	-3.268671	-1.715851	29.639027	0.229524	0.004006	27.960172	-16.628614	0.000000	0.236804	0.107512	-1.507143	0.439769	0.142990	-1.601340	0.389045	0.261404	-1.601340	0.270643	0.261404	-1.318751	0.219896	0.219238	-1.224554	0.135310	0.166536	-1.130358	1.691468	1.216193	-8.382280	0.000000	0.000000	11.592459	0.363053	19.152804	34.296785	-99.605538	-31.043139	3.567117	69.819266	-14.031696	24.492044	53.114461	-116.422309	72.423267	16.535787	59.325107	-9.768003	-2.936804
